<svg viewBox="0 0 17 17"
     width="100%" height="100%"
     xmlns="http://www.w3.org/2000/svg"
     fill="#697FA9">

<style>
    :root {
        max-width: 100%;
        max-height: 100%;
    }
</style>
<path d="M11.7083 10.7945H10.9796L10.7275 10.5425C11.6258 9.50205 12.1667 8.14996 12.1667 6.66955C12.1667 3.37871 9.49917 0.711212 6.20833 0.711212C2.9175 0.711212 0.25 3.37871 0.25 6.66955C0.25 9.96038 2.9175 12.6279 6.20833 12.6279C7.68875 12.6279 9.04083 12.087 10.0813 11.1933L10.3333 11.4454V12.1695L14.9167 16.7437L16.2825 15.3779L11.7083 10.7945ZM6.20833 10.7945C3.93042 10.7945 2.08333 8.94746 2.08333 6.66955C2.08333 4.39163 3.93042 2.54455 6.20833 2.54455C8.48625 2.54455 10.3333 4.39163 10.3333 6.66955C10.3333 8.94746 8.48625 10.7945 6.20833 10.7945Z"
      stroke="none"/>

</svg>
